<svg width="32" height="32" viewBox="0 0 32 32" fill="none" xmlns="http://www.w3.org/2000/svg">
<path d="M7.40008 23.5C8.80008 22.5222 10.189 21.7722 11.5667 21.25C12.9445 20.7278 14.4223 20.4667 16.0001 20.4667C17.5779 20.4667 19.0612 20.7278 20.4501 21.25C21.839 21.7722 23.2334 22.5222 24.6334 23.5C25.6112 22.3 26.3056 21.0889 26.7167 19.8667C27.1279 18.6444 27.3334 17.3555 27.3334 16C27.3334 12.7778 26.2501 10.0833 24.0834 7.91666C21.9167 5.74999 19.2223 4.66666 16.0001 4.66666C12.7779 4.66666 10.0834 5.74999 7.91675 7.91666C5.75008 10.0833 4.66675 12.7778 4.66675 16C4.66675 17.3555 4.87786 18.6444 5.30008 19.8667C5.7223 21.0889 6.4223 22.3 7.40008 23.5ZM16.0001 17C14.7112 17 13.6279 16.5611 12.7501 15.6833C11.8723 14.8055 11.4334 13.7222 11.4334 12.4333C11.4334 11.1444 11.8723 10.0611 12.7501 9.18332C13.6279 8.30554 14.7112 7.86666 16.0001 7.86666C17.289 7.86666 18.3723 8.30554 19.2501 9.18332C20.1279 10.0611 20.5667 11.1444 20.5667 12.4333C20.5667 13.7222 20.1279 14.8055 19.2501 15.6833C18.3723 16.5611 17.289 17 16.0001 17ZM16.0001 29.3333C14.1779 29.3333 12.4556 28.9833 10.8334 28.2833C9.21119 27.5833 7.79453 26.6278 6.58341 25.4167C5.3723 24.2055 4.41675 22.7889 3.71675 21.1667C3.01675 19.5444 2.66675 17.8222 2.66675 16C2.66675 14.1555 3.01675 12.4278 3.71675 10.8167C4.41675 9.20555 5.3723 7.79443 6.58341 6.58332C7.79453 5.37221 9.21119 4.41666 10.8334 3.71666C12.4556 3.01666 14.1779 2.66666 16.0001 2.66666C17.8445 2.66666 19.5723 3.01666 21.1834 3.71666C22.7945 4.41666 24.2056 5.37221 25.4167 6.58332C26.6279 7.79443 27.5834 9.20555 28.2834 10.8167C28.9834 12.4278 29.3334 14.1555 29.3334 16C29.3334 17.8222 28.9834 19.5444 28.2834 21.1667C27.5834 22.7889 26.6279 24.2055 25.4167 25.4167C24.2056 26.6278 22.7945 27.5833 21.1834 28.2833C19.5723 28.9833 17.8445 29.3333 16.0001 29.3333ZM16.0001 27.3333C17.2223 27.3333 18.4167 27.1555 19.5834 26.8C20.7501 26.4444 21.9001 25.8222 23.0334 24.9333C21.9001 24.1333 20.7445 23.5222 19.5667 23.1C18.389 22.6778 17.2001 22.4667 16.0001 22.4667C14.8001 22.4667 13.6112 22.6778 12.4334 23.1C11.2556 23.5222 10.1001 24.1333 8.96675 24.9333C10.1001 25.8222 11.2501 26.4444 12.4167 26.8C13.5834 27.1555 14.7779 27.3333 16.0001 27.3333ZM16.0001 15C16.7556 15 17.3723 14.7611 17.8501 14.2833C18.3279 13.8055 18.5667 13.1889 18.5667 12.4333C18.5667 11.6778 18.3279 11.0611 17.8501 10.5833C17.3723 10.1055 16.7556 9.86666 16.0001 9.86666C15.2445 9.86666 14.6279 10.1055 14.1501 10.5833C13.6723 11.0611 13.4334 11.6778 13.4334 12.4333C13.4334 13.1889 13.6723 13.8055 14.1501 14.2833C14.6279 14.7611 15.2445 15 16.0001 15Z" fill="#CCCCCC"/>
</svg>
